<svg xmlns="http://www.w3.org/2000/svg" xmlns:xlink="http://www.w3.org/1999/xlink" viewBox="0 0 400.84 600">
  <defs>
    <filter id="luminosity-noclip" x="-43.68" y="-42.72" width="492" height="690" filterUnits="userSpaceOnUse" color-interpolation-filters="sRGB">
      <feFlood flood-color="#fff" result="bg"/>
      <feBlend in="SourceGraphic" in2="bg"/>
    </filter>
    <mask id="mask" x="-43.39" y="-42.72" width="492" height="690" maskUnits="userSpaceOnUse">
      <g filter="url(#luminosity-noclip)">
        <g transform="translate(0.29)">
          <image width="2050" height="2875" transform="translate(-43.68 -42.72) scale(0.24)" xlink:href="self_portrait1.png"/>
        </g>
      </g>
    </mask>
  </defs>
  <g id="Layer_9" data-name="Layer 9">
    <rect width="400" height="600" fill="#7f77aa"/>
    <g mask="url(#mask)">
      <rect x="0.84" width="400" height="600" fill="#c6a2cc"/>
    </g>
  </g>
  <g id="Layer_6" data-name="Layer 6">
    <path d="M104.39,288.26l-14.84-4.44-4.9-8.73s-11.34-33.52-12.33-54.94C71,190.53,83.56,161.6,87,156.83s45.62-55.15,79-60.6,78-2,110,27.92,46.32,115.4,46.32,115.4l-5.28,10.56-4.36.86-9.77-28.2-7.16-15.48L295,195.67l-9.29-15.19-6-17.71-48.13-47.11-30.38-8.74-17.49,4.14-15.38,17.3-17.17,3.9-26.3,40.14L99.64,190.28l.59,36.08-.61,7.78,3.22,43.15Z" transform="translate(0.29)" fill="#696665"/>
    <path d="M96.71,292.11s-10-2-12.48-7-13.06-40.56-12-46.33,11.27-32.31,11.27-32.31l9.83-30.32,20.24-27.66s46.75-38.42,57-41.37,61.68-7.34,94,29.94,56.12,92.5,57.75,96.21,2.4,13.66.85,16.84-6.74,4.89-6.74,4.89l-26.62-21Z" transform="translate(0.29)" fill="#575554"/>
    <path d="M271.73,182.09,252.56,157,218,152.26l-43.23,3.38-20.42,48.17-25.19,16.85-28.94,5.7s-23-28-24-37.19,2-27.23,2-27.23a21.51,21.51,0,0,0,8.75,12.93c7.59,5.45,9.3,10.9,9.3,10.9a43.24,43.24,0,0,1-2.73-23.83,120.65,120.65,0,0,0,1.83-24.64s2,1.74,9.75,12.72c11.57,14.3,14.64,17.36,14.64,17.36s-12.26-31-7.49-43.91,2.72-12.94,2.72-12.94,12.6,12.26,22.47,14,3.74-14,3.74-14l16,9.19,9.53,4.77s4.77-9.53,4.77-14a37.22,37.22,0,0,0-1.53-9.36s9.87.68,11.74,4.26,2.56-4.26,2.56-7.66-4.77-8-4.77-8,17.64,4.31,16.52,17c-.32,3.56,9-7.85,9-7.85s19.24-3.24,22.3-1.53a22.09,22.09,0,0,1,5.45,4.59s-7.83-3.4-7.83,2.21,10.38,8.17,10.38,8.17l10.89-1.87s-.51,6.81-2.38,10.39,11.75,13.61,11.75,13.61l11.57,2.21s1.53-1.53-2.38,2.22,6.55,11.83,6.55,11.83l8,11.4L286.3,180l9,15.15.74,11.38L303,221l3.58,11.23s17.87,41.2,25.36,43.75S341,277.6,341,277.6s-3.66,2.72-6.81,2.55,7.49,6.64,7.49,6.64l-6.39-.43s-12.17-.17-13.36-1.7,7.41,12.26,10.64,12.85-9.28.94-11.66-1.11-8.34-4.25-8.34-4.25,5.36,18.38,10.21,20.17,5.71,9.45,5.71,9.45-4.68-4-6.64-3.92,7.91,9.89,7.91,9.89-5.69,12.16-9.86,8.5l-21-11.64,1.28-43.27-10.34-45.75-1.17-24.73-11.19-18.77Z" transform="translate(0.29)" fill="#b75c33"/>
    <path d="M101.7,280.3s-9.6,13.51-11.64,14.53,4.6,1.53,4.6,1.53-.26,10-3.32,11.49S93.06,313,93.06,313l4,2.1-5.49,4.53s4.6,4.6,6.13,4.6-15.32,7.15-18.38,5.87S81.89,339,81.89,339s10.79,4.85,17.27,4.59-14.46,5.88-14.46,5.88l10,5.87s-6.64,8.42-8.43,8.94,4.85,7.14,4.85,7.14S89.8,381.89,88,382.15s13.53,10.13,13.53,10.13a6.66,6.66,0,0,1-.85,7.48c-3.07,3.92,3.06,17.2,9,17.88s4.6,2.21,3.57,4.59,9.71,9.53,12.77,7.66,4.09,3.75,1.53,5.28,2.56,5.28,6.64,3.91,4.43,6.3,3.23,7.15,14.47,7.32,16.34,13.11S172,469.21,172,469.21a6.54,6.54,0,0,1,0-8.51c3.57-4.59,10.21,9.87,10.21,9.87s5.79-7.32,7.83-9.87,4.6,7.83,3.74,8.68,10-1.53,10.39-5.1,9.7,3.23,9.19,4.08,11.23-7.66,10.21-10.72,5.79-1.88,7.32-.51,10.55.68,10.72-6,11.58.34,11.58.34,11.06.68,11.4-4.26,5.45-10.38,9.36-7.83,8.69-9.36,9-12.93,11.06,2.21,11.74,3.06,4.26-12.93,3.06-15,4.09-10.55,7-8,6.64-9.7,3.24-13.44,7.83-11.75,8.68-11.75,2-12.08-2.55-12.93,6-9.2,9-11.58-.85-15.15-.85-15.15l5.78-1.19L299,324.44,278.31,356,245,388.13l-62.84,6.56-31.41-13.15-20-28.83-13.28-11.23-6.39-7.54-5.39-16.87-1.88-17Z" transform="translate(0.29)" fill="#b75c33"/>
    <path d="M98.35,294.77s-2.77,12.87-3.71,13.55a12.17,12.17,0,0,1-2.16,1.19s4.67.81,5.48-.38,1.46-5.48,1.46-5.48l-.36-4Z" transform="translate(0.29)" fill="#9c4f31"/>
    <path d="M102.84,323.72s-3.88,3.73-5.79,4.49-7.39,2.42-7.39,2.42l-7.48,1s8.87,2.58,10.34,2.45,7-1.4,8.39-1.75a33.13,33.13,0,0,0,4.16-1.74Z" transform="translate(0.29)" fill="#9c4f31"/>
    <path d="M111.59,343.27s-15.33,6.24-16.18,6.24a31.12,31.12,0,0,1-4,0c-.34-.17,2.77,2.12,3.63,2.1s14.33,0,16.18-.57,6.21-9.43,6.21-9.43Z" transform="translate(0.29)" fill="#9c4f31"/>
    <path d="M131,352.67l-9-.85s-18.14,8.44-22.66,13-5.7,15.7-5.7,15.7,5.6-10.21,12.81-11.94,29.26-2.81,29.26-2.81Z" transform="translate(0.29)" fill="#9c4f31"/>
    <polygon points="80.55 182.06 88.03 204 104.53 225.57 113.57 223.79 99.72 210.56 88.03 195.22 84.42 182.06 92.78 185.16 85.97 176.9 78.71 178.45 80.55 182.06" fill="#9c4f31"/>
    <polygon points="108.97 154.29 104.9 161.32 101.32 174 106.26 189.29 121.06 194.22 126.39 188.61 119.81 191.17 110.81 186.58 106.16 176.22 106.94 165.09 109.06 158.9 112.31 158.35 108.97 154.29" fill="#9c4f31"/>
    <path d="M94.45,156.67l1.4,6.39,3.77,21,5.67,15.1,11.23,2.61,14.8,4.45,1.74-3.67L129.87,198l7,3.67s-.87,5.81-1,6.3-6,5.07-6,5.07l-18.48-5.46-11.77-7-2.46-11.42-3.39-20-.71-2.51A62.65,62.65,0,0,1,94.45,156.67Z" transform="translate(0.29)" fill="#9c4f31"/>
    <path d="M84.68,153.77" transform="translate(0.29)" fill="#9c4f31"/>
    <path d="M160.19,189.81,159,178.35s-6.67-7.35-8.31-7.93-19.36-3.1-19.36-3.1l-6.09,8.42s.87,8.95.87,9.12,9.38,6.31,9.38,6.31l4.94-3.43-4,.87-8.13-5.81.1-8.13,4.84-3.58,14,3.17,9.39,9.8.58,10.16-.27,3.39Z" transform="translate(0.29)" fill="#9c4f31"/>
    <path d="M131.34,122.35,125.23,128s-1.36,10.19-1,12,7.87,12.26,7.87,12.26l24.39-5.42-5.42-12.65-1.55,11.61-12,1.29-7.49-10.83,1.17-8.91,5.61-.9,2.38-1.84A27.12,27.12,0,0,1,131.34,122.35Z" transform="translate(0.29)" fill="#9c4f31"/>
    <polygon points="171.78 163.06 166.06 153.58 171 138.77 188.9 129.29 177.87 138.48 173.71 150.77 180.58 155.61 171.78 163.06" fill="#9c4f31"/>
    <path d="M228.61,101.16l-8.8-1-4.07,4.94-3.1,15,10.94,10.54,12.87,2.81-13.74-9L217,112.22l3.48-8.62,4.81-.9S225.64,101.1,228.61,101.16Z" transform="translate(0.29)" fill="#9c4f31"/>
  </g>
  <g id="Layer_7" data-name="Layer 7">
    <path d="M130.84,352.33l-12.61-10.17-7.31-8.08-5.17-17.49-4-36.56s-1.26-31.11-2.09-46.38l.51-7.32,28.94-5.7,25.19-16.85,20.43-48.17,43.57-3.35,34.3,4.29L271.37,181l17.19,29.87,1.28,24.26,10.34,45.74-1.28,43.28-20.71,31.52-33.25,32.13-18.8,2-44,4.59-31.4-13.15Z" transform="translate(0.29)" fill="#fce0d3"/>
    <polygon points="175.07 155.64 218.55 152.26 198.48 159.68 175.78 169.42 162.48 205.8 148.29 217.03 134.48 224.26 117.71 236.13 115.94 280.64 152.71 289.84 124.68 300.51 131.22 352.36 118.61 342.19 111.31 334.11 106.14 316.62 102.1 280.06 100.01 233.68 100.52 226.36 129.46 220.66 145.98 209.61 154.65 203.81 175.07 155.64" fill="#e4bfb5"/>
  </g>
  <g id="Layer_2" data-name="Layer 2">
    <ellipse cx="153.87" cy="255.94" rx="10.3" ry="9.7" fill="#5a684e"/>
    <ellipse cx="153.87" cy="255.94" rx="5.33" ry="5.36" fill="#1c1c1c"/>
    <ellipse cx="249.45" cy="252.55" rx="11.4" ry="10.26" fill="#5a684e"/>
    <ellipse cx="249.45" cy="252.55" rx="5.38" ry="5.47" fill="#1c1c1c"/>
    <ellipse cx="253.03" cy="254.45" rx="2.52" ry="2.37" fill="#fff"/>
    <ellipse cx="158.14" cy="257.36" rx="2.31" ry="2.41" fill="#fff"/>
  </g>
  <g id="Layer_8" data-name="Layer 8">
    <ellipse cx="194.48" cy="307.54" rx="6.36" ry="2.48" fill="#564440"/>
    <path d="M185.84,314.38S178,308.89,178,303.53,186.63,291,186.63,291s5.7-38.43,5.47-40.09-27.68-12.25-31.26-12.38-23,0-23,0,30-10.92,42-8.3c12.23,2.68,22.72,11.37,22.72,11.37L215,298.93l-3.7,1.92s-7.4,1.15-6.89,1.28,7.78,9.7,7.78,9.7l-10.34,1.53s-2.52-6.59-5-7.4c-3.63-1.2-8.8,1.66-8.93,3.44S185.84,314.38,185.84,314.38Z" transform="translate(0.29)" fill="#e4bfb5"/>
    <path d="M231.6,299.39s-11.49-1.28-12.52-1.79-8.25-41.87-8.17-43.74,19.24,30.47,19.24,30.47l-2.89-.43Z" transform="translate(0.29)" fill="#fceee8"/>
    <path d="M222.59,253.17s21-14.35,28.42-15.68c5.62-1,12.27-1.81,11.42-1.49s-4.91,4.44-4.91,4.44l18.22,14.2-17.45-9.8-11.16-.51L234,249.68l-11.4,6Z" transform="translate(0.29)" fill="#e4bfb5"/>
    <polygon points="274.31 252.13 261.13 240.63 263.98 236 272.88 247.6 274.31 252.13" fill="#fceee8"/>
    <path d="M139.68,243.42l16.13-1.55c3.95.06,23.74,9.76,23.74,9.76l4.71,4.82L175.39,253l-22.93-5.49-10.52,3-15.12,9.62Z" transform="translate(0.29)" fill="#e4bfb5"/>
    <path d="M291.67,334s-3.38-29.29-5.08-33-7.75-18.14-7.75-18.14l.9-8.24,11.55.77,8.89,6-1.3,43.28Z" transform="translate(0.29)" fill="#fceee8"/>
    <polygon points="277.75 191.55 277.41 198.98 282.81 212.25 283.71 235.1 289.2 245.83 291.21 239.37 290.24 235.1 288.96 210.85 277.75 191.55" fill="#fceee8"/>
  </g>
  <g id="Layer_5" data-name="Layer 5">
    <path d="M159.87,346.13s26.38.05,28.55-.15,21.07,1,21.71.86,20.17-1.93,21.57-1.93,19.66.87,20.94.77a50.7,50.7,0,0,0,5.94-1.71l-6.71,8.3s-12.55,9-13.23,9.17-16.94,3.11-18.22,2.91-23.23,1.1-24.59.81-15.58-4.06-18-4.94S162.47,349.51,159.87,346.13Z" transform="translate(0.29)" fill="#cd9f93"/>
    <path d="M219.7,236.63s-3.7-5.75-3.83-6.39a7.76,7.76,0,0,1,0-1.8,9,9,0,0,0,2.49,1.42c.83.13,1.34-2.81,1.34-2.81s.38,1.63,1,1.39,7.28-4.2,7.28-4.2l.77,1,.63-1s21.83-6.51,25.66-6.51,23.88,5.11,25.53,7a8.79,8.79,0,0,1,1.92,4.34s-2.43-2.69-3.7-2.94-20-3.7-20.68-3.57a7.79,7.79,0,0,1-2.3-.39V223l-5.75,2.17-2.29-.38v.76l-25.28,10.21-.51.9-.64-1.41Z" transform="translate(0.29)" fill="#c18167"/>
    <path d="M191.74,238.05l1.06-6.89-3,2.15s.91-2.28,0-2.66a3.83,3.83,0,0,1-1.51-1.66l-2,1.66-6.5-2.94-23.54-6.07-8,5.27,22.93,6.93,2.27-.53.45.91Z" transform="translate(0.29)" fill="#c18167"/>
    <path d="M159.14,325.11l-11.74,4.27-6,7,3.07-1.87-3.92,10s-1.87,9.53-1.53,10.05,2.38-2.05,2.38-2.05l2.39,5.79-4.33,7.75L148,378.13l3.56-2.77-.51-1.78,1.6-.13s1.78-10,1.53-10.92-1.66-3.51-1.47-5.17.7.07.7.07l1.21-6.7,1.54-3.07,1.08,1.6.45-7.15,6-3.45,2.36,1.47,1.53-4.53s4.09.32,4.09.57a14.81,14.81,0,0,0,1.53,2.11l5.62-3.45,4.59,1.85,3.51,3.39,2.81-3.51,2.81.7,4.28.64,2.55-1.54,7.85,2.3,1.79-2.55,4.59,2.1,5.49-1.65s3.07,1.34,3.13,1.85,2.94-2.05,2.94-2.05,2.36,1,2.29,1.22a24.73,24.73,0,0,0,2.75-2.11s1.28,1.28,1.85,1.79,2.55-1.15,2.55-1.15l3.26-.07,1.08,1,1.66-2.17,1.54,1.08s4-.83,4.14-1.21,2.75,1,2.75,1l2.17-.51,3,1.66,1.19-1.62s3.15.17,3.15.85,2.13,4.26,2.13,4.26l.93-1.62s2.39,7.06,1.87,7.32-2.12,10.55-2.12,10.55l1.19-.76a11.74,11.74,0,0,1-1.19,4c-.82,1.14-.78,1.09-1.19,4.29-.37,2.86,2.41,8.88,2.41,8.88l8.78-8.19,0-9.36s-.2-2.47.39-1.88.05-2,.05-2-.24-4.34.26-4.08.86-2.64,0-4.77-2-4.68-2-4.68-2.47-1.62-2.38-2.64-4.85-6.11-4.85-6.11l-4.17-1.12-17.07-3.15-11.74-3.87-4.85.89-8.3,1.91-3.32,1.41-2.81-.64-2.93.77-7.28.76-.38-1.15-10.6-2.93s-3.37-2.05-3.86-1-6,.76-6,.76l-3.44-.25-1.66,1.4-1.28-.64-2,.9-3.19-.26Z" transform="translate(0.29)" fill="#b75c33"/>
    <polygon points="162.19 346.61 171.18 349.07 186.88 349.28 210.57 351.26 245.99 348.5 255.87 346.13 247.42 350.46 210.84 354.05 186.79 351.95 171.29 351.65 162.19 346.61" fill="#c68d83"/>
    <path d="M196.88,374.17s0,4.45.16,5.37a22.33,22.33,0,0,0,2.13,4.35c.28.34.44-1.42.88-2s3.49,5.6,3.53,5.84.2.86.1,1,2.46-1.91,2.51-3,2.06,1.61,2,1.77a6.18,6.18,0,0,0-.1,1,8.34,8.34,0,0,0,1.64-1.33c.19-.38.91-1.72.91-1.72a37.08,37.08,0,0,1,2.35,3.07c0,.27,1-1.24,1-1.91s1.81.72,1.81.72l1.87-2.14s1.74,2.21,1.63,2.72,4-4.08,4.1-5.28,1.67-2.87,1.28-3.42.72.09.72.09a12.49,12.49,0,0,0,0-4.18c-.41-1.93-1.29-5.56-1.29-5.56l-1.09-.42-10.25,2.09-.19.65-.95-.75-3.11-.09-1.26.73-.61-.6-4.34.11-.23.68-.71-.87-3.47,0-.21.8-.91-.69-.5.93Z" transform="translate(0.29)" fill="#b75c33"/>
    <ellipse cx="224.6" cy="306.51" rx="6.36" ry="2.54" fill="#564440"/>
    <polygon points="215.26 310.58 207.39 303.22 212.16 302.19 215.26 300.51 219.52 299.39 236.68 301.93 236.68 308 232.55 312.26 227.52 305.16 221.54 304.9 218.74 307.09 219.52 311.35 215.26 310.58" fill="#fceee8"/>
    <path d="M116,420.88,127.46,413l7.22-15.35V386.3l-9.35,15.49s-6,7.35-7.16,7.61-9.17,3.87-9.68,3.87,8.26,2.45,8.26,2.45Z" transform="translate(0.29)" fill="#9c4f31"/>
    <polygon points="166.33 389.92 164.26 398.69 163.23 414.69 166.33 428.88 170.46 404.5 176.13 395.98 173.29 392.24 166.33 389.92" fill="#9c4f31"/>
    <polygon points="139.31 444.75 139.31 436.11 134.97 432.11 145.68 418.17 146.59 409.4 149.55 418.17 146.71 431.85 139.31 444.75" fill="#9c4f31"/>
    <path d="M161.07,462.43c0-.58,2.71-17.68,2.71-17.68l22.06-20.84-15.29,24.78-2.9,17.22Z" transform="translate(0.29)" fill="#9c4f31"/>
    <polygon points="206.1 394.33 207.39 415.4 203.78 449.46 215.26 415.4 213.04 394.33 206.1 394.33" fill="#9c4f31"/>
    <polygon points="228.91 452.56 230.96 439.98 228.13 408.63 237.62 434.37 236.68 456.04 228.91 452.56" fill="#9c4f31"/>
    <polygon points="250.2 387.53 250.2 402.82 260.84 420.04 257.94 401.85 257.36 380.49 250.2 387.53" fill="#9c4f31"/>
    <polygon points="284.46 421.9 284.46 403.59 279.13 369.09 288.52 387.14 293.17 420.04 284.46 421.9" fill="#9c4f31"/>
    <polygon points="291.21 341.66 296.26 359.08 299.75 389.92 304.2 352.36 298.58 328.5 291.21 341.66" fill="#9c4f31"/>
    <polygon points="322.51 332.75 316.58 323.08 306.52 307.92 318.71 319.4 326.26 330.63 322.51 332.75" fill="#9c4f31"/>
    <path d="M306.56,232.23l.83,11.84,14.83,32.51,14.43,3.23A10.91,10.91,0,0,0,341,277.6c1.59-1.56-4.52.83-9.11-1.62S306.56,232.23,306.56,232.23Z" transform="translate(0.29)" fill="#9c4f31"/>
    <path d="M264.52,155.56s4,9.77,4.16,10.06S278,177.91,278,177.91l-8.22-22.35-.68-6.79s-3.1-2.81-4-4.61S264.52,155.56,264.52,155.56Z" transform="translate(0.29)" fill="#9c4f31"/>
    <polygon points="288.96 210.85 287.3 201.21 281.17 189.33 288.52 197.79 292.26 207.72 288.96 210.85" fill="#9c4f31"/>
    <polygon points="296.35 206.51 292.26 207.72 293.71 213.35 302.31 218.97 296.35 206.51" fill="#9c4f31"/>
    <polygon points="157.55 326.69 154.59 332.75 152.78 340.63 160.16 330.3 163.23 325.27 157.55 326.69" fill="#9c4f31"/>
    <polygon points="148.32 378.13 143.49 381.79 140.91 391.2 148.32 381.66 150.35 380.49 148.32 378.13" fill="#9c4f31"/>
    <polygon points="139.31 367.2 136.97 373.01 137.36 387.24 139.31 373.4 140.91 367.63 139.79 366.05 139.31 367.2" fill="#9c4f31"/>
    <polygon points="262.55 372.37 267.55 379.4 272.13 387.08 262.2 375.44 260.54 373.42 262.29 371.73 262.55 372.37" fill="#9c4f31"/>
    <path d="M271.36,363.08s0,5.82,0,6-.61,5.15-.61,5.15,1.72,6.71,1.86,6.51,0-9.35,0-9.35l.37-10.29Z" transform="translate(0.29)" fill="#9c4f31"/>
    <polygon points="189.73 322.26 188.78 327.59 191.1 334.56 191.1 325.27 193.5 323.3 189.73 322.26" fill="#9c4f31"/>
    <polygon points="202.59 336.93 203.78 332.75 203.78 329.01 206.1 336.93 205.44 338.05 202.59 336.93" fill="#9c4f31"/>
    <path d="M233.48,322.41l-1.88,4.41s1.38,8.39.94,7.74,2.4-8.65,2.4-8.65l1.45-2.54Z" transform="translate(0.29)" fill="#9c4f31"/>
    <polygon points="253.84 327.3 251.75 331.33 254.97 329.79 255.87 327.68 253.84 327.3" fill="#9c4f31"/>
    <polygon points="270.41 338.13 268.65 348.75 267.23 359.2 266.34 345.53 269.27 337.26 270.41 338.13" fill="#9c4f31"/>
    <polygon points="209.52 371.01 207.42 376.88 207.94 383.08 209.17 376.3 211.49 371.73 211.49 370.94 209.52 371.01" fill="#9c4f31"/>
    <path d="M221.44,385.59l-2.89-7.74S216,374.75,216,375s5.09,3.95,5.09,3.95l1.46,5.17Z" transform="translate(0.29)" fill="#9c4f31"/>
    <path d="M196.91,377.4l2.55-2.46.44-2.83.78,4.9-2.77,4.61a7.31,7.31,0,0,1-.87-2.08C197,378.77,196.91,377.4,196.91,377.4Z" transform="translate(0.29)" fill="#9c4f31"/>
  </g>
</svg>
